<svg width="16" height="12" viewBox="0 0 16 12" fill="none" xmlns="http://www.w3.org/2000/svg">
<path d="M5.99992 5.7504C7.47268 5.7504 8.66659 4.55649 8.66659 3.08374C8.66659 1.61098 7.47268 0.417068 5.99992 0.417068C4.52716 0.417068 3.33325 1.61098 3.33325 3.08374C3.33325 4.55649 4.52716 5.7504 5.99992 5.7504Z" fill="#00ABC2"/>
<path d="M5.99996 7.08374C4.21996 7.08374 0.666626 7.97707 0.666626 9.75041V10.4171C0.666626 10.7837 0.966626 11.0837 1.33329 11.0837H10.6666C11.0333 11.0837 11.3333 10.7837 11.3333 10.4171V9.75041C11.3333 7.97707 7.77996 7.08374 5.99996 7.08374Z" fill="#00ABC2"/>
<path d="M13.3333 4.41707V2.41707H12V4.41707H10V5.7504H12V7.7504H13.3333V5.7504H15.3333V4.41707H13.3333Z" fill="#00ABC2"/>
</svg>
