<svg width="34" height="43" viewBox="0 0 34 43" fill="none" xmlns="http://www.w3.org/2000/svg">
<path d="M32.5833 22.7292C29.3125 14.2292 17.6667 13.7708 20.4792 1.41667C20.6875 0.500007 19.7083 -0.208326 18.9167 0.270841C11.3542 4.72917 5.91668 13.6667 10.4792 25.375C10.8542 26.3333 9.72918 27.2292 8.91668 26.6042C5.14584 23.75 4.75001 19.6458 5.08334 16.7083C5.20834 15.625 3.79168 15.1042 3.18751 16C1.77084 18.1667 0.333344 21.6667 0.333344 26.9375C1.12501 38.6042 10.9792 42.1875 14.5208 42.6458C19.5833 43.2917 25.0625 42.3542 29 38.75C33.3333 34.7292 34.9167 28.3125 32.5833 22.7292ZM13.25 33.2083C16.25 32.4792 17.7917 30.3125 18.2083 28.3958C18.8958 25.4167 16.2083 22.5 18.0208 17.7917C18.7083 21.6875 24.8333 24.125 24.8333 28.375C25 33.6458 19.2917 38.1667 13.25 33.2083Z" fill="#FFEC2D"/>
</svg>
