<svg width="24" height="24" viewBox="0 0 24 24" fill="none" xmlns="http://www.w3.org/2000/svg">
<path d="M20.6684 13.1433C20.7151 12.77 20.7501 12.3967 20.7501 12C20.7501 11.6033 20.7151 11.23 20.6684 10.8567L23.1301 8.93168C23.3517 8.75668 23.4101 8.44168 23.2701 8.18501L20.9367 4.14834C20.7967 3.89168 20.4817 3.79834 20.2251 3.89168L17.3201 5.05834C16.7134 4.59168 16.0601 4.20668 15.3484 3.91501L14.9051 0.823344C14.8701 0.543344 14.6251 0.333344 14.3334 0.333344H9.66672C9.37506 0.333344 9.13006 0.543344 9.09506 0.823344L8.65172 3.91501C7.94006 4.20668 7.28672 4.60334 6.68006 5.05834L3.77506 3.89168C3.50672 3.78668 3.20339 3.89168 3.06339 4.14834L0.730057 8.18501C0.57839 8.44168 0.64839 8.75668 0.870057 8.93168L3.33172 10.8567C3.28506 11.23 3.25006 11.615 3.25006 12C3.25006 12.385 3.28506 12.77 3.33172 13.1433L0.870057 15.0683C0.64839 15.2433 0.590057 15.5583 0.730057 15.815L3.06339 19.8517C3.20339 20.1083 3.51839 20.2017 3.77506 20.1083L6.68006 18.9417C7.28672 19.4083 7.94006 19.7933 8.65172 20.085L9.09506 23.1767C9.13006 23.4567 9.37506 23.6667 9.66672 23.6667H14.3334C14.6251 23.6667 14.8701 23.4567 14.9051 23.1767L15.3484 20.085C16.0601 19.7933 16.7134 19.3967 17.3201 18.9417L20.2251 20.1083C20.4934 20.2133 20.7967 20.1083 20.9367 19.8517L23.2701 15.815C23.4101 15.5583 23.3517 15.2433 23.1301 15.0683L20.6684 13.1433ZM12.0001 16.0833C9.74839 16.0833 7.91672 14.2517 7.91672 12C7.91672 9.74834 9.74839 7.91668 12.0001 7.91668C14.2517 7.91668 16.0834 9.74834 16.0834 12C16.0834 14.2517 14.2517 16.0833 12.0001 16.0833Z" fill="#00ABC2"/>
</svg>
